<svg width="15" height="15" viewBox="0 0 15 15" fill="none" xmlns="http://www.w3.org/2000/svg">
<path opacity="0.4" d="M15 7.5C15 11.6362 11.6355 15 7.5 15C3.3645 15 0 11.6362 0 7.5C0 3.3645 3.3645 0 7.5 0C11.6355 0 15 3.3645 15 7.5Z" fill="#130F26"/>
<path d="M10.6651 6.4175C10.6651 6.56075 10.6103 6.70475 10.5008 6.81425L7.89832 9.4295C7.79257 9.53525 7.64932 9.5945 7.49932 9.5945C7.35007 9.5945 7.20682 9.53525 7.10107 9.4295L4.49707 6.81425C4.27807 6.5945 4.27807 6.239 4.49857 6.01925C4.71907 5.80025 5.07532 5.801 5.29432 6.02075L7.49932 8.2355L9.70432 6.02075C9.92332 5.801 10.2788 5.80025 10.4993 6.01925C10.6103 6.12875 10.6651 6.2735 10.6651 6.4175" fill="white"/>
</svg>
